<svg width="18" height="17" viewBox="0 0 18 17" fill="none" xmlns="http://www.w3.org/2000/svg">
<path d="M9.00003 0C4.02947 0 0 3.8196 0 8.53127C0 12.5322 2.90573 15.8894 6.82579 16.8113V11.1383H4.96996V8.53127H6.82579V7.40789C6.82579 7.22644 6.83125 7.05111 6.84213 6.88177V6.88167V6.88162C6.84214 6.88155 6.84213 6.88149 6.84213 6.88142C6.87481 6.37342 6.95671 5.91968 7.0894 5.51885C7.13364 5.38522 7.18353 5.25747 7.23912 5.13555C7.29459 5.01387 7.3558 4.89805 7.42269 4.78793C7.42282 4.78771 7.42292 4.78745 7.42306 4.78723V4.78718C7.4232 4.78694 7.42338 4.78673 7.42353 4.78648C7.49045 4.67644 7.56309 4.57211 7.64153 4.47351C7.72016 4.37468 7.80456 4.28156 7.89487 4.19413C7.98518 4.1067 8.08137 4.02498 8.18349 3.94884H8.18354C8.28565 3.87271 8.39367 3.80213 8.5077 3.73719C8.96385 3.47738 9.51585 3.30666 10.1673 3.22171C10.493 3.17924 10.8436 3.15823 11.2195 3.15823C11.5046 3.15823 11.8931 3.18472 12.2606 3.22446H12.2607C12.4445 3.24434 12.623 3.26751 12.7807 3.29235C12.9383 3.31716 13.0751 3.34361 13.1756 3.37008C13.1757 3.37011 13.1759 3.37015 13.176 3.37018H13.1761V5.7335C13.0698 5.7229 12.9245 5.71491 12.7484 5.70961C12.5723 5.70431 12.3655 5.70171 12.1363 5.70171C12.0441 5.70171 11.9553 5.70374 11.8701 5.70796C11.1029 5.74591 10.6157 5.95781 10.3486 6.40024C10.2893 6.49855 10.2408 6.60825 10.2025 6.72996C10.1834 6.79081 10.1668 6.85468 10.1527 6.92161C10.1386 6.98854 10.127 7.05854 10.1177 7.13171V7.13176C10.0993 7.27808 10.0904 7.43705 10.0904 7.60924V8.53127H13.03H13.0301L12.5251 11.1383H10.0904V17C14.5467 16.4898 18 12.8931 18 8.53127C18 3.8196 13.9706 0 9.00003 0Z" fill="#DBDBDB"/>
</svg>
