<svg width="17" height="17" viewBox="0 0 17 17" fill="none" xmlns="http://www.w3.org/2000/svg">
<path d="M8.5 1.53132C10.7696 1.53132 11.0385 1.53982 11.9348 1.58076C12.7637 1.61857 13.2137 1.75689 13.5132 1.87338C13.9102 2.02769 14.1932 2.21164 14.4906 2.50909C14.788 2.80654 14.9724 3.08964 15.1263 3.48652C15.2428 3.78601 15.3812 4.23606 15.419 5.0649C15.4598 5.96126 15.4684 6.23001 15.4684 8.49973C15.4684 10.7694 15.4599 11.0381 15.419 11.9345C15.3812 12.7633 15.2428 13.2134 15.1263 13.5129C14.972 13.9098 14.7881 14.1928 14.4906 14.4903C14.1932 14.7877 13.9101 14.972 13.5132 15.126C13.2137 15.2425 12.7637 15.3808 11.9348 15.4186C11.0385 15.4595 10.7697 15.4681 8.5 15.4681C6.23029 15.4681 5.9616 15.4596 5.06524 15.4186C4.2364 15.3808 3.78635 15.2425 3.48686 15.126C3.08991 14.9716 2.80688 14.7877 2.50943 14.4903C2.21205 14.1928 2.02769 13.9097 1.87372 13.5129C1.75716 13.2134 1.61891 12.7633 1.5811 11.9345C1.54023 11.0382 1.53166 10.7694 1.53166 8.49973C1.53166 6.23008 1.54017 5.96133 1.5811 5.0649C1.61891 4.23606 1.75723 3.78601 1.87372 3.48652C2.02803 3.08957 2.21198 2.80654 2.50943 2.50909C2.80688 2.21171 3.08998 2.02735 3.48686 1.87338C3.78635 1.75689 4.2364 1.61857 5.06524 1.58076C5.96153 1.54023 6.23036 1.53132 8.5 1.53132ZM8.5 0C6.19152 0 5.90196 0.00986088 4.9954 0.0510713C4.09053 0.0922819 3.47285 0.236111 2.93221 0.446245C2.37315 0.663586 1.89929 0.954237 1.42673 1.42673C0.954237 1.89929 0.663315 2.37315 0.446244 2.93221C0.236043 3.47291 0.0922815 4.09087 0.0510712 4.9954C0.00986088 5.90203 0 6.19159 0 8.5C0 10.8084 0.00985885 11.098 0.0510712 12.0046C0.0922815 12.9095 0.236111 13.5272 0.446244 14.0678C0.663586 14.6269 0.954237 15.1007 1.42673 15.5733C1.89929 16.0458 2.37349 16.3364 2.93221 16.5538C3.47291 16.764 4.09087 16.9077 4.9954 16.9489C5.90196 16.9901 6.19152 17 8.5 17C10.8085 17 11.098 16.9901 12.0046 16.9489C12.9095 16.9077 13.5272 16.7639 14.0678 16.5538C14.6269 16.3363 15.1007 16.0458 15.5733 15.5733C16.0458 15.1007 16.3364 14.6265 16.5538 14.0678C16.764 13.5272 16.9077 12.9091 16.9489 12.0046C16.9901 11.098 17 10.8085 17 8.5C17 6.19152 16.9901 5.90196 16.9489 4.9954C16.9077 4.09053 16.7639 3.47285 16.5538 2.93221C16.3363 2.37315 16.0458 1.89929 15.5733 1.42673C15.1007 0.954237 14.6265 0.663586 14.0678 0.446245C13.5272 0.236043 12.9091 0.0922819 12.0046 0.0510713C11.0981 0.00986066 10.8085 0 8.5 0ZM8.5 4.13521C6.08931 4.13521 4.13521 6.08931 4.13521 8.5C4.13521 10.9107 6.08931 12.8649 8.5 12.8649C10.9107 12.8649 12.8649 10.9107 12.8649 8.5C12.8649 6.08931 10.9107 4.13521 8.5 4.13521ZM8.5 11.3335C6.93529 11.3335 5.66653 10.0652 5.66653 8.50007C5.66653 6.93495 6.93529 5.6666 8.5 5.6666C10.0647 5.6666 11.3335 6.93495 11.3335 8.50007C11.3335 10.0652 10.0647 11.3335 8.5 11.3335ZM13.0373 2.94282C12.4738 2.94282 12.0173 3.39933 12.0173 3.96282C12.0173 4.5263 12.4738 4.98288 13.0373 4.98288C13.6007 4.98288 14.0573 4.5263 14.0573 3.96282C14.0573 3.39933 13.6008 2.94282 13.0373 2.94282Z" fill="#DBDBDB"/>
</svg>
