<svg width="16" height="15" viewBox="0 0 16 15" fill="none" xmlns="http://www.w3.org/2000/svg">
<path d="M0 13.8961V1.10387C0 0.436581 0.566346 0 1.18669 0H14.8133C15.396 0 16 0.43492 16 1.10465V13.8961C16 14.3606 15.6597 15 14.8125 15H1.1875C0.355048 15 0 14.3441 0 13.8961ZM4.74906 5.55657H2.35206V12.6868H4.74906V5.55657ZM8.6222 10.6188C8.63458 8.31983 8.63193 8.3523 8.83884 7.96141C9.07035 7.50238 9.51949 7.35482 10.0231 7.35306C10.706 7.30624 11.0766 7.75428 11.2081 8.34182C11.2786 9.78749 11.2502 11.2391 11.2509 12.6868H13.6515L13.6395 10.2428C13.6279 7.88027 13.6253 7.78815 13.5629 7.48263C13.4211 6.78974 13.2206 6.38697 12.8389 6.02866C12.4168 5.63233 11.9351 5.44967 11.1471 5.38714C10.2371 5.31491 9.25288 5.47441 8.52434 6.54232V5.55657H6.21722V12.6868H8.61105L8.6222 10.6188ZM3.96731 4.52896C4.95944 4.25685 5.25897 3.07856 4.52415 2.39549C4.24747 2.13829 3.94194 2.02067 3.55057 2.02067C2.76928 2.02067 2.17229 2.57392 2.17229 3.29795C2.17229 3.87142 2.55343 4.34023 3.12395 4.52765C3.28292 4.57987 3.78647 4.57858 3.96731 4.52896Z" fill="#DBDBDB"/>
</svg>
