<svg width="65" height="38" viewBox="0 0 65 38" fill="none" xmlns="http://www.w3.org/2000/svg">
<path d="M25.2147 1.3426e-08C23.9776 1.14732e-05 22.7675 0.367299 21.7325 1.05684C20.6976 1.74638 19.8829 2.72821 19.3882 3.88197H16.0423V4.49288H6.66861C3.08467 4.49288 0.0955817 7.42106 0.0955963 11.0482V31.4286C0.0955963 35.0557 3.08467 37.9815 6.66861 37.9815H26.1726C26.6473 37.9815 27.1026 37.7896 27.4383 37.448C27.774 37.1064 27.9626 36.6431 27.9626 36.1601C27.9626 35.677 27.774 35.2137 27.4383 34.8722C27.1026 34.5306 26.6473 34.3387 26.1726 34.3386H6.66861C4.95289 34.3386 3.67604 33.0447 3.67604 31.4286V11.0482C3.67604 9.43208 4.95289 8.13624 6.66861 8.13624H16.0423V8.73397H19.2629C19.7163 9.96791 20.5292 11.0315 21.5928 11.7826C22.6564 12.5337 23.92 12.9364 25.2147 12.9369H26.8937V1.3426e-08H25.2147ZM38.2502 1.3426e-08V2.47753H34.803C34.2275 2.47753 33.7641 2.94862 33.7641 3.53416V4.26979C33.7641 4.85533 34.2275 5.32642 34.803 5.32642H38.2502V7.61052H34.803C34.2275 7.61052 33.7641 8.08208 33.7641 8.66761V9.40277C33.7641 9.98832 34.2275 10.4599 34.803 10.4599H38.2502V12.9369H39.9287C41.2234 12.9364 42.487 12.5337 43.5506 11.7826C44.6142 11.0315 45.4271 9.96791 45.8805 8.73397H49.1012V8.13624H58.3314C60.0471 8.13624 61.3244 9.43208 61.3244 11.0482V31.4286C61.3244 33.0447 60.0471 34.3386 58.3314 34.3386H39.228C38.7533 34.3387 38.298 34.5306 37.9623 34.8722C37.6266 35.2137 37.438 35.677 37.438 36.1601C37.438 36.6432 37.6266 37.1064 37.9623 37.448C38.298 37.7896 38.7533 37.9815 39.228 37.9815H58.3314C61.9154 37.9815 64.9044 35.0557 64.9044 31.4286V11.0482C64.9044 7.42106 61.9154 4.49288 58.3314 4.49288H49.1012V3.88197H45.7557C45.261 2.72813 44.4462 1.74625 43.4111 1.05671C42.3761 0.367163 41.1658 -8.10765e-05 39.9287 1.3426e-08H38.2502Z" fill="#EB1B26"/>
</svg>
