<svg width="139" height="48" viewBox="0 0 139 48" fill="none" xmlns="http://www.w3.org/2000/svg">
<path d="M63.1375 0.274658C61.4883 0.274658 60.2303 0.776394 59.3632 1.77982C58.5131 2.76594 58.088 4.21061 58.088 6.11365C58.088 7.87828 58.8192 9.48745 60.2813 10.9407L62.1684 12.861C62.8485 13.5357 63.3158 14.0374 63.5709 14.3661C63.8429 14.6775 64.0641 15.0753 64.2341 15.5597C64.4041 16.0268 64.489 16.6235 64.489 17.3501C64.489 17.9037 64.4125 18.302 64.2595 18.5441C64.1065 18.7691 63.8347 18.8811 63.4436 18.8811C62.7466 18.8811 62.3979 18.3279 62.3979 17.2206V14.4438H58.088V16.6239C58.088 18.8556 58.53 20.4729 59.4141 21.4763C60.2982 22.4798 61.7347 22.9815 63.7239 22.9815C65.5431 22.9815 66.8438 22.4192 67.6258 21.2947C68.4249 20.1529 68.8247 18.4836 68.8247 16.2864C68.8247 15.3003 68.7057 14.4523 68.4676 13.743C68.2296 13.0163 67.9151 12.3935 67.5241 11.8745C67.1331 11.3382 66.64 10.7763 66.0449 10.1881L63.4945 7.69647C62.6785 6.91794 62.2702 6.16577 62.2702 5.43915C62.2702 5.11044 62.3555 4.85055 62.5255 4.66024C62.6955 4.46994 62.9505 4.37502 63.2906 4.37502C63.5796 4.37502 63.8004 4.46135 63.9534 4.63434C64.1234 4.80735 64.2087 5.04105 64.2087 5.33516L64.2341 6.86622H68.6971C68.6971 4.59987 68.2635 2.93914 67.3964 1.88381C66.5294 0.811204 65.1097 0.274658 63.1375 0.274658H63.1375ZM75.4805 0.274658C73.6273 0.274658 72.2672 0.836953 71.4001 1.96148C70.533 3.086 70.0995 4.75578 70.0995 6.97022V17.2465C70.0995 19.0285 70.5756 20.4298 71.5277 21.4505C72.4968 22.4712 73.7806 22.9815 75.3788 22.9815C79.0681 22.9815 80.9129 21.1133 80.9129 17.3764V13.1721H76.5009V17.1948C76.5009 18.3193 76.1606 18.8811 75.4805 18.8811C75.1405 18.8811 74.8855 18.7514 74.7155 18.4919C74.5455 18.2151 74.4606 17.783 74.4606 17.1948V6.01008C74.4606 5.47377 74.5285 5.06695 74.6646 4.79014C74.8176 4.51334 75.0895 4.37502 75.4805 4.37502C75.8546 4.37502 76.1185 4.49614 76.2715 4.73838C76.4245 4.98059 76.5009 5.42172 76.5009 6.06184V9.35738H80.8616V5.51682C80.8616 3.82138 80.3685 2.52364 79.3824 1.62402C78.3963 0.724404 77.0957 0.274658 75.4805 0.274658ZM44.8308 31.2967V33.2396H47.5694V31.2967H44.8308ZM69.5077 31.2967V33.2396H72.2463V31.2967H69.5077ZM3.59793 31.87C2.58606 31.87 1.81417 32.1778 1.28216 32.7934C0.760559 33.3985 0.5 34.285 0.5 35.4526C0.5 36.5354 0.94831 37.5228 1.84549 38.4145L3.00368 39.5925C3.42095 40.0065 3.70749 40.3148 3.86399 40.5164C4.0309 40.7075 4.16665 40.9515 4.271 41.2488C4.37533 41.5354 4.42731 41.9015 4.42731 42.3473C4.42731 42.687 4.38065 42.931 4.28675 43.0797C4.19283 43.2177 4.02574 43.2867 3.78579 43.2867C3.35808 43.2867 3.14425 42.9472 3.14425 42.2678V40.564H0.5V41.9016C0.5 43.271 0.771143 44.2633 1.3136 44.879C1.85606 45.4946 2.73735 45.8029 3.9579 45.8029C5.07413 45.8029 5.87204 45.4579 6.35192 44.7679C6.84223 44.0673 7.08784 43.0426 7.08784 41.6945C7.08784 41.0894 7.01459 40.5695 6.86858 40.1343C6.72254 39.6884 6.52945 39.3062 6.28951 38.9878C6.04958 38.6587 5.74712 38.3137 5.38201 37.9528L3.81728 36.4241C3.31654 35.9464 3.06614 35.4848 3.06614 35.039C3.06614 34.8372 3.11817 34.678 3.22245 34.5612C3.32679 34.4445 3.48326 34.3862 3.69188 34.3862C3.86924 34.3862 4.00505 34.4391 4.09894 34.5452C4.20327 34.6514 4.25531 34.7945 4.25531 34.9749L4.2709 35.9144H7.0091C7.0091 34.5238 6.74323 33.505 6.2112 32.8574C5.67918 32.1993 4.80808 31.87 3.59803 31.87H3.59797H3.59793ZM40.6685 31.87C39.5314 31.87 38.6968 32.215 38.1648 32.905C37.6328 33.595 37.3665 34.6196 37.3665 35.9784V42.2838C37.3665 43.3771 37.6587 44.2371 38.2429 44.8635C38.8376 45.4898 39.6254 45.8029 40.606 45.8029C42.8698 45.8029 44.0014 44.6562 44.0014 42.3633V39.7836H41.2942V42.2518C41.2942 42.9417 41.0857 43.2867 40.6685 43.2867C40.4598 43.2867 40.3033 43.2073 40.199 43.0481C40.0947 42.8783 40.0427 42.6127 40.0427 42.2518V35.3891C40.0427 35.06 40.084 34.8106 40.1675 34.6408C40.2614 34.4709 40.4285 34.3862 40.6685 34.3862C40.898 34.3862 41.0597 34.4601 41.1536 34.6088C41.2476 34.7574 41.2942 35.0284 41.2942 35.4211V37.4431H43.97V35.0865C43.97 34.0462 43.6676 33.2499 43.0625 32.6979C42.4574 32.1459 41.6595 31.87 40.6685 31.87ZM84.9992 31.87C83.8621 31.87 83.0276 32.215 82.4956 32.905C81.9635 33.595 81.6976 34.6196 81.6976 35.9784V42.2838C81.6976 43.3771 81.99 44.2371 82.5742 44.8635C83.1688 45.4898 83.9561 45.8029 84.9368 45.8029C87.2005 45.8029 88.3327 44.6562 88.3327 42.3633V39.7836H85.6255V42.2518C85.6255 42.9417 85.4165 43.2867 84.9992 43.2867C84.7906 43.2867 84.6345 43.2073 84.5302 43.0481C84.4258 42.8783 84.3734 42.6127 84.3734 42.2518V35.3891C84.3734 35.06 84.4153 34.8106 84.4988 34.6408C84.5927 34.4709 84.7593 34.3862 84.9993 34.3862C85.2288 34.3862 85.3905 34.4601 85.4844 34.6088C85.5784 34.7574 85.6255 35.0284 85.6255 35.4211V37.4431H88.3013V35.0865C88.3013 34.0462 87.9988 33.2499 87.3938 32.6979C86.7887 32.1459 85.9903 31.87 84.9993 31.87L84.9992 31.87ZM7.93288 31.9181V45.6754H10.7492V36.8538C10.7492 36.6203 10.8013 36.4243 10.9056 36.265C11.0203 36.0952 11.172 36.0099 11.3597 36.0099C11.5788 36.0099 11.7455 36.0899 11.8602 36.2491C11.9749 36.4083 12.0322 36.6151 12.0322 36.8699V45.6754H14.7709V36.6948C14.7709 35.8243 14.5725 35.1397 14.1761 34.6408C13.7797 34.1419 13.1956 33.8925 12.4236 33.8925C11.5994 33.8925 11.0413 34.3169 10.7492 35.1661V31.9181L7.93288 31.9181ZM32.1245 31.9974L29.4646 31.9977V34.4658H28.6977V36.5833H29.4646V43.8602C29.4646 44.5396 29.5999 45.0335 29.8711 45.3414C30.1424 45.6492 30.6379 45.803 31.3577 45.803C31.6394 45.803 31.9264 45.7763 32.2185 45.7231C32.521 45.6806 32.7507 45.6385 32.9072 45.596V43.6852C32.8759 43.6852 32.8133 43.6905 32.7194 43.7012C32.6255 43.7122 32.5263 43.717 32.422 43.717C32.2863 43.717 32.203 43.6689 32.1718 43.5734C32.1404 43.4778 32.1245 43.3294 32.1245 43.1277V36.5832H32.9072V34.4657H32.1245L32.1245 31.9974ZM76.4558 31.9974L73.7953 31.9977V34.4658H73.0284V36.5833H73.7953V43.8602C73.7953 44.5396 73.9311 45.0335 74.2024 45.3414C74.4736 45.6492 74.9691 45.803 75.689 45.803C75.9706 45.803 76.2576 45.7763 76.5497 45.7231C76.8522 45.6806 77.0815 45.6385 77.2379 45.596V43.6852C77.2066 43.6852 77.144 43.6905 77.0502 43.7012C76.9563 43.7122 76.8571 43.717 76.7528 43.717C76.6171 43.717 76.5338 43.6689 76.5025 43.5734C76.4712 43.4778 76.4558 43.3294 76.4558 43.1277V36.5832H77.2379V34.4657H76.4558V31.9974ZM28.3221 33.8765C27.8214 33.8765 27.399 34.0038 27.0548 34.2587C26.7209 34.5028 26.486 34.8532 26.3504 35.3097V34.0196H23.6122V45.6754H26.3504V36.7583C26.3504 36.6097 26.5801 36.4823 27.0391 36.3761C27.5085 36.2594 27.9362 36.201 28.3221 36.201V33.8765ZM53.3589 33.8765C52.8582 33.8765 52.4358 34.0038 52.0916 34.2587C51.7577 34.5028 51.5232 34.8532 51.3876 35.3097V34.0196H48.649V45.6754H51.3876V36.7583C51.3876 36.6097 51.6168 36.4823 52.0758 36.3761C52.5453 36.2594 52.9729 36.201 53.3589 36.201V33.8765ZM19.1678 33.8925C18.1037 33.8925 17.2643 34.2214 16.6488 34.8795C16.0437 35.527 15.7408 36.4027 15.7408 37.5067V42.1883C15.7408 44.598 16.8831 45.803 19.1678 45.803C21.4524 45.803 22.5951 44.598 22.5951 42.1883V37.5067C22.5951 36.4027 22.2873 35.527 21.6719 34.8795C21.0668 34.2213 20.2318 33.8925 19.1678 33.8925ZM57.4431 33.8925C56.5459 33.8925 55.8418 34.0518 55.3306 34.3703C54.8299 34.6887 54.4702 35.1664 54.2511 35.8034C54.0425 36.4297 53.938 37.2471 53.938 38.2555V41.8537C53.938 43.1912 54.2144 44.184 54.7673 44.8316C55.3202 45.4791 56.2226 45.803 57.4745 45.803C58.4447 45.803 59.232 45.532 59.8371 44.9906C60.4526 44.4386 60.7607 43.6849 60.7607 42.7296V40.6917H57.9754L57.9906 42.65C58.0014 42.9367 57.949 43.1704 57.8342 43.3509C57.7299 43.5313 57.5681 43.6215 57.3491 43.6215C57.13 43.6215 56.9634 43.5313 56.8486 43.3509C56.7443 43.1598 56.6918 42.9314 56.6918 42.6661V37.0135C56.6918 36.366 56.9162 36.042 57.3648 36.042C57.6048 36.042 57.7665 36.1268 57.85 36.2966C57.9335 36.4558 57.9754 36.6896 57.9754 36.9974V38.6377H60.7607V36.8539C60.7607 35.9198 60.453 35.1926 59.8375 34.6724C59.222 34.1523 58.4236 33.8925 57.443 33.8925L57.4431 33.8925ZM92.5107 33.8925C91.4467 33.8925 90.6068 34.2214 89.9913 34.8795C89.3863 35.527 89.0838 36.4027 89.0838 37.5067V42.1883C89.0838 44.598 90.2261 45.803 92.5107 45.803C94.7953 45.803 95.9376 44.598 95.9376 42.1883V37.5067C95.9376 36.4027 95.6298 35.527 95.0144 34.8795C94.4093 34.2213 93.5748 33.8925 92.5107 33.8925ZM101.555 33.8925C101.002 33.8925 100.575 34.0146 100.272 34.2587C99.9695 34.5028 99.7556 34.8743 99.6304 35.3732V34.0196H96.9547V45.6754H99.6304V37.4432C99.6304 37.0504 99.6878 36.7162 99.8025 36.4402C99.9173 36.1536 100.116 36.01 100.397 36.01C100.616 36.01 100.757 36.111 100.82 36.3126C100.893 36.5143 100.929 36.7799 100.929 37.109V45.6754H103.667V37.3001C103.667 36.9391 103.725 36.631 103.84 36.3762C103.955 36.1108 104.142 35.9785 104.403 35.9785C104.778 35.9785 104.966 36.3553 104.966 37.109V45.6754H107.721L107.752 37.1565C107.752 36.095 107.574 35.2884 107.22 34.7364C106.875 34.1738 106.255 33.8925 105.358 33.8925C104.857 33.8925 104.466 33.9881 104.184 34.1791C103.902 34.3596 103.647 34.6512 103.417 35.0546C103.282 34.6936 103.047 34.4124 102.713 34.2107C102.39 33.9984 102.004 33.8925 101.555 33.8925ZM113.244 33.8925C112.545 33.8925 111.998 34.1419 111.601 34.6408V34.0196H108.816V48H111.601V45.2137C111.956 45.6065 112.477 45.803 113.166 45.803C113.886 45.803 114.423 45.6276 114.778 45.2773C115.133 44.9163 115.362 44.4493 115.466 43.8761C115.57 43.2923 115.623 42.544 115.623 41.6311V37.3161C115.623 36.244 115.445 35.405 115.091 34.8C114.746 34.1949 114.131 33.8925 113.244 33.8925ZM119.942 33.8925C118.752 33.8925 117.892 34.1366 117.36 34.6249C116.838 35.1132 116.577 35.9305 116.577 37.077V37.4591H119.238V36.7584C119.238 36.5249 119.29 36.3391 119.394 36.2011C119.509 36.0631 119.639 35.994 119.785 35.994C119.952 35.994 120.093 36.0792 120.207 36.2491C120.333 36.4083 120.395 36.6416 120.395 36.9494V38.1119V38.144L119.644 38.3986C118.789 38.6746 118.153 38.9295 117.735 39.163C117.318 39.3859 116.99 39.7416 116.75 40.23C116.52 40.7183 116.405 41.4185 116.405 42.3315C116.405 43.4461 116.567 44.306 116.89 44.9111C117.224 45.5056 117.834 45.803 118.721 45.803C119.128 45.803 119.477 45.6702 119.77 45.4048C120.072 45.1395 120.291 44.768 120.427 44.2903V45.6755H123.15V36.7904C123.15 35.8669 122.852 35.1558 122.257 34.6569C121.663 34.1474 120.891 33.8926 119.942 33.8926L119.942 33.8925ZM128.657 33.8925C128.188 33.8925 127.812 34.041 127.531 34.3383C127.249 34.6355 127.051 35.0231 126.936 35.5008V34.0196H124.198V45.6754H126.936V37.4752C126.936 37.04 126.978 36.695 127.062 36.4402C127.156 36.1748 127.343 36.042 127.625 36.042C127.833 36.042 127.985 36.1322 128.079 36.3127C128.183 36.4931 128.235 36.7107 128.235 36.9655V45.6754H130.927V36.6788C130.927 35.7871 130.739 35.1026 130.363 34.6249C129.998 34.1366 129.43 33.8925 128.658 33.8925H128.657ZM44.8308 34.0196V45.6754H47.5694V34.0196L44.8308 34.0196ZM61.684 34.0196V42.698C61.684 43.7278 61.8405 44.5025 62.1535 45.0226C62.4769 45.5428 63.0658 45.803 63.9212 45.803C64.4115 45.803 64.7819 45.6966 65.0322 45.4843C65.2826 45.272 65.5012 44.9217 65.689 44.4334V45.6754H68.4277V34.0196H65.7047L65.689 42.1403V42.2359C65.689 42.6817 65.6528 43.0267 65.5798 43.2708C65.5069 43.5044 65.3292 43.6215 65.0475 43.6215C64.8389 43.6215 64.6823 43.5578 64.578 43.4304C64.4841 43.2924 64.4374 43.0641 64.4374 42.7456V42.1404V34.0196L61.684 34.0196ZM69.5077 34.0196V45.6754H72.2463V34.0196L69.5077 34.0196ZM131.584 34.0196L133.368 45.4368C133.379 45.4793 133.383 45.5375 133.383 45.6119C133.383 45.7711 133.289 45.8505 133.101 45.8505H131.787V47.6178H134.87C135.349 47.6178 135.699 47.5065 135.918 47.2837C136.148 47.0714 136.299 46.7371 136.372 46.2807L138.5 34.0196H135.871L135.261 39.7041L134.964 42.6025L134.713 39.7041L134.197 34.0196L131.584 34.0196ZM19.1678 36.042C19.5955 36.042 19.8097 36.3816 19.8097 37.061V42.7615C19.8097 43.0375 19.7573 43.2551 19.6529 43.4143C19.5486 43.5736 19.3868 43.653 19.1678 43.653C18.9487 43.653 18.7873 43.5735 18.683 43.4143C18.5787 43.2551 18.5262 43.0375 18.5262 42.7615V37.061C18.5262 36.3816 18.74 36.042 19.1678 36.042ZM92.5107 36.042C92.9384 36.042 93.1522 36.3816 93.1522 37.061V42.7615C93.1522 43.0375 93.0998 43.2551 92.9954 43.4143C92.8911 43.5736 92.7298 43.653 92.5107 43.653C92.2916 43.653 92.1298 43.5735 92.0255 43.4143C91.9212 43.2551 91.8692 43.0375 91.8692 42.7615V37.061C91.8692 36.3816 92.083 36.042 92.5107 36.042ZM112.243 36.0741C112.503 36.0741 112.671 36.18 112.744 36.3922C112.817 36.6045 112.853 36.9127 112.853 37.3161V42.2679C112.853 42.7137 112.817 43.0533 112.744 43.2869C112.671 43.5204 112.509 43.6375 112.258 43.6375C111.998 43.6375 111.82 43.5312 111.726 43.3188C111.643 43.0959 111.601 42.7882 111.601 42.3954V37.2841C111.601 36.4773 111.815 36.0741 112.243 36.0741H112.243ZM120.38 39.4816V42.7296C120.38 42.9844 120.333 43.2019 120.239 43.3824C120.156 43.5522 120.01 43.6375 119.801 43.6375C119.394 43.6375 119.19 43.2925 119.19 42.6025V41.1053C119.19 40.6701 119.284 40.3305 119.472 40.0864C119.67 39.8422 119.973 39.6408 120.38 39.4816Z" fill="white"/>
</svg>
