<svg width="163" height="33" viewBox="0 0 163 33" fill="none" xmlns="http://www.w3.org/2000/svg">
<path d="M132.488 0.837318V27.6237C132.488 29.0647 132.87 30.1953 133.633 31.0147C134.424 31.8059 135.611 32.2012 137.193 32.2012H140.16V28.4291H137.108V0.837318H132.488ZM0 2.61751V32.2012H16.8262V27.9627H4.7893V2.61751H0ZM116.764 9.65292C114.617 9.65292 112.879 10.0629 111.551 10.8823C110.223 11.6735 109.192 12.6906 108.457 13.9339L111.212 16.4346C111.777 15.5587 112.469 14.838 113.289 14.2729C114.108 13.7078 115.168 13.4255 116.468 13.4255C118.022 13.4255 119.166 13.7925 119.901 14.5271C120.635 15.2618 121.002 16.3073 121.002 17.6635V19.5286H117.018C113.938 19.5286 111.593 20.0795 109.982 21.1815C108.4 22.2835 107.609 23.9366 107.609 26.1405C107.609 28.1467 108.217 29.7431 109.432 30.9299C110.675 32.1166 112.441 32.71 114.73 32.71C116.34 32.71 117.711 32.3568 118.841 31.6504C119.971 30.944 120.748 29.8985 121.172 28.514H121.384C121.525 29.5877 121.921 30.4776 122.571 31.184C123.221 31.8622 124.153 32.2012 125.368 32.2012H127.953V28.4291H125.622V17.3669C125.622 14.8804 124.859 12.9733 123.334 11.6453C121.808 10.3173 119.618 9.65292 116.764 9.65292ZM153.214 9.65292C151.632 9.65292 150.219 9.92149 148.975 10.4584C147.732 10.9952 146.673 11.7721 145.797 12.7894C144.921 13.7783 144.243 14.9935 143.762 16.4346C143.31 17.8474 143.084 19.4296 143.084 21.1815C143.084 22.9333 143.31 24.5297 143.762 25.9708C144.243 27.3836 144.921 28.5988 145.797 29.616C146.673 30.605 147.732 31.3677 148.975 31.9046C150.219 32.4414 151.632 32.71 153.214 32.71C155.277 32.71 157.085 32.3143 158.639 31.5231C160.193 30.7037 161.38 29.6161 162.199 28.2598L159.487 25.5893C158.837 26.6065 158.046 27.4118 157.113 28.0052C156.181 28.5985 155.037 28.8955 153.68 28.8955C151.815 28.8955 150.374 28.3583 149.357 27.2846C148.368 26.1826 147.874 24.7843 147.874 23.089V22.3684H163.005V20.6307C163.005 19.1049 162.793 17.6778 162.369 16.3497C161.974 15.0217 161.366 13.8632 160.546 12.8742C159.727 11.857 158.696 11.0659 157.452 10.5008C156.237 9.93568 154.825 9.65292 153.214 9.65292ZM18.6516 10.1617V24.1906C18.6516 26.9314 19.2734 29.0366 20.5167 30.5059C21.7882 31.9752 23.568 32.71 25.8568 32.71C26.761 32.71 27.552 32.597 28.2302 32.371C28.9366 32.1449 29.53 31.848 30.0104 31.4806C30.519 31.0851 30.929 30.633 31.2398 30.1244C31.5788 29.6158 31.847 29.0933 32.0448 28.5564H32.2145V32.2012H36.8341V10.1617H32.2145V24.9112C32.2145 25.561 32.0731 26.1261 31.7906 26.6065C31.5363 27.0868 31.183 27.4826 30.7309 27.7934C30.3071 28.1042 29.8125 28.3444 29.2474 28.514C28.6823 28.6553 28.103 28.7257 27.5096 28.7257C24.684 28.7257 23.2716 27.0163 23.2716 23.5974V10.1617H18.6516ZM41.1999 10.1617L48.7441 21.0541L40.9877 32.2012H45.9043L51.2024 24.1906H51.3293L56.4157 32.2012H61.7558L54.0842 21.0122L61.6289 10.1617H56.7123L51.6264 17.8333H51.4991L46.54 10.1617H41.1999ZM153.214 13.2557C154.74 13.2557 155.941 13.7787 156.817 14.8242C157.693 15.8414 158.131 17.1976 158.131 18.8929V19.3169H147.874V19.0198C147.874 18.1721 148.001 17.3952 148.255 16.6888C148.509 15.9824 148.862 15.3748 149.315 14.8662C149.795 14.3575 150.36 13.9622 151.01 13.6797C151.688 13.3971 152.423 13.2557 153.214 13.2557ZM117.103 22.4953H121.002V25.6741C121.002 26.7479 120.536 27.6099 119.604 28.2598C118.671 28.8814 117.485 29.1921 116.044 29.1921C114.885 29.1921 113.967 28.9519 113.289 28.4715C112.639 27.9629 112.314 27.2144 112.314 26.2254V25.4624C112.314 23.4845 113.91 22.4953 117.103 22.4953Z" fill="white"/>
</svg>
