<svg width="40" height="40" viewBox="0 0 40 40" fill="none" xmlns="http://www.w3.org/2000/svg">
<path d="M9.61452 0C6.98656 0 4.86963 0.747934 3.26365 2.24442C1.43868 3.99639 0.526016 6.38748 0.526016 9.41692V10.3473C0.526016 12.0628 0.872945 13.6689 1.56643 15.1654C2.25992 16.6618 3.26327 17.9942 4.57724 19.1622C5.38023 19.8557 6.63984 20.6585 8.35531 21.571C9.59629 22.2645 10.3625 22.7392 10.6545 22.9947C12.005 24.2356 12.6801 25.6953 12.6801 27.3743V29.7835C12.6801 31.134 12.4064 32.0462 11.8589 32.5207C11.4209 32.9587 10.673 33.178 9.61452 33.178C8.59254 33.178 7.84418 32.9587 7.36969 32.5207C6.8222 32.0097 6.54848 31.0975 6.54848 29.7835V24.801H0.526016V29.7835C0.526016 32.813 1.43868 35.2036 3.26365 36.9556C4.86963 38.4521 6.98656 39.2004 9.61452 39.2004C12.2425 39.2004 14.3594 38.4521 15.9654 36.9556C17.7904 35.2036 18.7026 32.813 18.7026 29.7835V27.3743C18.7026 23.8703 17.3523 20.9139 14.6514 18.505C13.9214 17.848 12.6073 17.0086 10.7093 15.9866C9.65084 15.4026 8.93909 14.9645 8.5741 14.6725C7.22362 13.4681 6.54848 12.0263 6.54848 10.3473V9.41692C6.54848 8.10294 6.8222 7.19028 7.36969 6.67928C7.84418 6.24128 8.59254 6.02247 9.61452 6.02247C10.673 6.02247 11.4209 6.24128 11.8589 6.67928C12.4064 7.15377 12.6801 8.06644 12.6801 9.41692V12.7565H18.7026V9.41692C18.7026 6.38748 17.7904 3.99639 15.9654 2.24442C14.3594 0.747934 12.2425 0 9.61452 0ZM30.9119 0C28.357 0 26.2401 0.747934 24.5611 2.24442C22.7361 4.06939 21.8234 6.46047 21.8234 9.41692V29.7835C21.8234 32.74 22.7361 35.1306 24.5611 36.9556C26.2401 38.4521 28.357 39.2004 30.9119 39.2004C33.5399 39.2004 35.6568 38.4521 37.2628 36.9556C39.0878 35.2036 40 32.813 40 29.7835V24.8559H33.9776V29.7835C33.9776 31.134 33.7221 32.0462 33.2112 32.5207C32.7367 32.9587 31.9704 33.178 30.9119 33.178C29.89 33.178 29.1416 32.9587 28.6671 32.5207C28.1196 32.0097 27.8459 31.0975 27.8459 29.7835V9.41692C27.8459 8.10294 28.1196 7.19028 28.6671 6.67928C29.1416 6.24128 29.89 6.02247 30.9119 6.02247C31.9704 6.02247 32.7367 6.24128 33.2112 6.67928C33.7221 7.15377 33.9776 8.06644 33.9776 9.41692V12.8113H40V9.41692C40 6.38748 39.0878 3.99639 37.2628 2.24442C35.6568 0.747934 33.5399 0 30.9119 0Z" fill="#EB1B26"/>
</svg>
